<svg xmlns="http://www.w3.org/2000/svg" width="500" height="500" viewBox="0 0 500 500">
<g>
<path d="M 0.00 0.00 L 500.00 0.00 L 500.00 500.00 L 0.00 500.00 ZM 211.00 350.43 C213.78,351.01 223.46,349.83 228.22,348.34 C234.60,346.34 242.40,339.14 246.08,331.85 C249.60,324.87 251.02,319.08 262.57,264.75 L 271.43 223.00 L 291.78 223.00 L 293.42 215.76 C294.32,211.78 295.32,206.83 295.65,204.76 L 296.26 201.00 L 276.21 201.00 L 277.11 197.02 C279.91,184.54 283.37,181.41 293.44,182.28 C296.77,182.56 300.23,183.09 301.11,183.45 C302.42,183.98 303.40,182.23 306.26,174.30 L 309.78 164.50 L 307.64 163.35 C299.99,159.24 278.12,159.01 269.80,162.95 C260.37,167.42 254.08,176.84 249.85,192.84 L 247.63 201.25 L 241.07 204.11 C229.46,209.16 229.70,208.94 228.33,215.52 C227.65,218.81 227.07,221.84 227.04,222.25 C227.02,222.66 230.63,223.00 235.07,223.00 C242.28,223.00 243.08,223.18 242.61,224.75 C242.10,226.47 237.39,248.77 228.47,291.72 C223.27,316.80 221.85,321.10 217.64,324.65 C214.77,327.07 214.05,327.20 206.29,326.79 L 198.00 326.36 L 198.00 348.86 L 203.75 349.49 C206.91,349.84 210.18,350.26 211.00,350.43 Z" fill="rgb(0,0,0)"/>
<path d="M 211.00 350.43 C210.18,350.26 206.91,349.84 203.75,349.49 L 198.00 348.86 L 198.00 337.61 L 198.00 326.36 L 206.29 326.79 C214.05,327.20 214.77,327.07 217.64,324.65 C221.85,321.10 223.27,316.80 228.47,291.72 C237.39,248.77 242.10,226.47 242.61,224.75 C243.08,223.18 242.28,223.00 235.07,223.00 C230.63,223.00 227.02,222.66 227.04,222.25 C227.07,221.84 227.65,218.81 228.33,215.52 C229.70,208.94 229.46,209.16 241.07,204.11 L 247.63 201.25 L 249.85 192.84 C254.08,176.84 260.37,167.42 269.80,162.95 C278.12,159.01 299.99,159.24 307.64,163.35 L 309.78 164.50 L 306.26 174.30 C303.40,182.23 302.42,183.98 301.11,183.45 C300.23,183.09 296.77,182.56 293.44,182.28 C283.37,181.41 279.91,184.54 277.11,197.02 L 276.21 201.00 L 286.23 201.00 L 296.26 201.00 L 295.65 204.76 C295.32,206.83 294.32,211.78 293.42,215.76 L 291.78 223.00 L 281.61 223.00 L 271.43 223.00 L 262.57 264.75 C251.02,319.08 249.60,324.87 246.08,331.85 C242.40,339.14 234.60,346.34 228.22,348.34 C223.46,349.83 213.78,351.01 211.00,350.43 Z" fill="rgb(244,244,244)"/>
</g>
</svg>